HIERARCHY
ROOT Hips
{
	OFFSET 0.000000 0.000000 0.000000 
	CHANNELS 6 Xposition Yposition Zposition Zrotation Yrotation Xrotation
	JOINT LeftUpLeg
	{
		OFFSET 1.363060 -1.794630 0.839290 
		CHANNELS 3 Zrotation Yrotation Xrotation
		JOINT LeftLeg
		{
			OFFSET 2.448110 -6.726130 0.000000 
			CHANNELS 3 Zrotation Yrotation Xrotation
			JOINT LeftFoot
			{
				OFFSET 2.562200 -7.039590 0.000000 
				CHANNELS 3 Zrotation Yrotation Xrotation
				JOINT LeftToeBase
				{
					OFFSET 0.157640 -0.433110 2.322550 
					CHANNELS 3 Zrotation Yrotation Xrotation
					End Site
					{
						OFFSET 0.000000 0.000000 0.000000 
					}
				}
			}
		}
	}
	JOINT RightUpLeg
	{
		OFFSET -1.305520 -1.794630 0.839290 
		CHANNELS 3 Zrotation Yrotation Xrotation
		JOINT RightLeg
		{
			OFFSET -2.542530 -6.985550 0.000000 
			CHANNELS 3 Zrotation Yrotation Xrotation
			JOINT RightFoot
			{
				OFFSET -2.568260 -7.056230 0.000000 
				CHANNELS 3 Zrotation Yrotation Xrotation
				JOINT RightToeBase
				{
					OFFSET -0.164730 -0.452590 2.363150 
					CHANNELS 3 Zrotation Yrotation Xrotation
					End Site
					{
						OFFSET 0.000000 0.000000 0.000000 
					}
				}
			}
		}
	}
	JOINT Spine
	{
		OFFSET 0.028270 2.035590 -0.193380 
		CHANNELS 3 Zrotation Yrotation Xrotation
		JOINT Spine1
		{
			OFFSET 0.056720 2.048850 -0.042750 
			CHANNELS 3 Zrotation Yrotation Xrotation
			JOINT Neck1
			{
				OFFSET -0.054170 1.746240 0.172020 
				CHANNELS 3 Zrotation Yrotation Xrotation
				JOINT Head
				{
					OFFSET 0.104070 1.761360 -0.123970 
					CHANNELS 3 Zrotation Yrotation Xrotation
					End Site
					{
						OFFSET 0.000000 0.000000 0.000000 
					}
				}
			}
			JOINT LeftArm
			{
				OFFSET 3.362410 1.200890 -0.311210 
				CHANNELS 3 Zrotation Yrotation Xrotation
				JOINT LeftForeArm
				{
					OFFSET 4.983000 -0.000000 -0.000000 
					CHANNELS 3 Zrotation Yrotation Xrotation
					JOINT LeftHand
					{
						OFFSET 3.483560 -0.000000 -0.000000 
						CHANNELS 3 Zrotation Yrotation Xrotation
						JOINT LeftHandIndex1
						{
							OFFSET 0.715260 -0.000000 -0.000000 
							CHANNELS 3 Zrotation Yrotation Xrotation
							End Site
							{
								OFFSET 0.000000 0.000000 0.000000 
							}
						}
					}
				}
			}
			JOINT RightArm
			{
				OFFSET -3.136600 1.374050 -0.404650 
				CHANNELS 3 Zrotation Yrotation Xrotation
				JOINT RightForeArm
				{
					OFFSET -5.241900 -0.000000 -0.000000 
					CHANNELS 3 Zrotation Yrotation Xrotation
					JOINT RightHand
					{
						OFFSET -3.444170 -0.000000 -0.000000 
						CHANNELS 3 Zrotation Yrotation Xrotation
						JOINT RightHandIndex1
						{
							OFFSET -0.622530 -0.000000 -0.000000 
							CHANNELS 3 Zrotation Yrotation Xrotation
							End Site
							{
								OFFSET 0.000000 0.000000 0.000000 
							}
						}
					}
				}
			}
		}
	}
}
MOTION
Frames: 9
Frame Time: 0.041667
0.224392 17.222435 -0.690915 1.392901 -1.406017 -8.436405 -21.730192 -7.001267 -0.817871 1.588729 9.032805 30.053070 0.293741 0.092889 -5.906323 0.710500 -5.387200 -15.016400 21.630620 11.003230 -1.213478 -3.412682 -11.283578 35.110070 0.424069 -6.131282 -12.716785 -1.121300 6.726500 -18.907700 -0.467847 -0.146398 2.093055 -1.405082 0.036728 -6.582277 15.840611 -10.336229 -4.813141 8.420500 -5.052300 0.756500 133.902603 -74.924672 171.780559 29.493313 -41.567942 -9.617016 -0.109074 1.941142 -52.374768 -7.125000 0.000000 0.000000 -122.359428 79.101889 -173.354528 -26.492693 44.227680 -9.668133 0.377792 1.107971 -10.821319 7.125000 0.000000 0.000000 
0.222175 17.226648 -0.690139 1.431298 -1.384407 -8.373615 -21.780499 -7.077765 -0.801991 1.566075 9.007549 29.958464 0.272639 0.193808 -5.890837 0.703000 -5.359200 -14.935900 21.574144 10.985419 -1.254394 -3.399152 -11.266396 35.048124 0.428893 -6.152089 -12.706868 -1.086100 6.623500 -18.604500 -0.468978 -0.130025 2.096046 -1.397242 0.043283 -6.591176 15.874863 -10.391415 -4.758939 8.397700 -5.050400 0.883600 133.668057 -74.992246 172.429310 30.442774 -42.478612 -10.251905 -0.097523 1.902315 -52.479747 -7.125000 0.000000 0.000000 -121.537575 78.989579 -172.405893 -27.372957 45.094202 -10.224814 0.376363 1.153919 -10.836267 7.125000 0.000000 0.000000 
0.219292 17.230861 -0.688920 1.314006 -1.381914 -8.253919 -21.632591 -7.149798 -0.863761 1.545487 8.982416 29.863468 0.260439 0.246567 -5.842970 0.707600 -5.376200 -14.984800 21.704997 11.009839 -1.330363 -3.381023 -11.254840 34.982400 0.451554 -6.269602 -12.704916 -1.082800 6.613700 -18.575900 -0.445225 -0.081372 2.097523 -1.477074 0.059507 -6.615255 15.985694 -10.484841 -4.967733 8.426100 -5.075800 0.888900 133.513144 -75.019757 173.023496 31.434612 -43.379652 -10.918672 -0.089820 1.874300 -52.496692 -7.125000 0.000000 0.000000 -121.281611 79.306579 -171.990726 -28.519860 46.071339 -10.916640 0.363953 1.203335 -10.732799 7.125000 0.000000 0.000000 
0.217186 17.233965 -0.687922 1.230756 -1.412367 -8.181885 -21.538882 -7.198899 -0.888705 1.527389 8.961548 29.785040 0.231430 0.396184 -5.846729 0.747900 -5.523800 -15.408900 21.801010 11.046418 -1.367175 -3.366771 -11.242619 34.925154 0.466474 -6.332193 -12.663071 -1.121000 6.725600 -18.905000 -0.443918 -0.035856 2.111630 -1.570777 0.072490 -6.633161 16.107094 -10.547615 -5.449935 8.465900 -5.092700 0.767100 133.320602 -75.087038 173.709476 32.466456 -44.282437 -11.624602 -0.074428 1.848043 -52.487078 -7.125000 0.000000 0.000000 -120.862894 79.408538 -171.503789 -29.702282 47.086184 -11.695796 0.360238 1.213512 -10.571853 7.125000 0.000000 0.000000 
0.214858 17.238289 -0.687146 1.356242 -1.397823 -8.118232 -21.689878 -7.294169 -0.879670 1.508462 8.947667 29.718305 0.215785 0.481326 -5.875582 0.759800 -5.566900 -15.532800 21.651937 11.058656 -1.389440 -3.360511 -11.227978 34.882484 0.458010 -6.250224 -12.556712 -1.046100 6.504300 -18.254700 -0.476668 -0.039651 2.111465 -1.548812 0.073004 -6.685445 16.271908 -10.548116 -6.046626 8.540900 -5.080800 0.593200 132.946170 -75.225915 174.546758 33.556031 -45.203041 -12.383022 -0.059755 1.821768 -52.412969 -7.125000 0.000000 0.000000 -120.426895 79.339064 -170.911598 -30.955957 48.139412 -12.558180 0.350186 1.208744 -10.531238 7.125000 0.000000 0.000000 
0.214303 17.240950 -0.686370 1.487399 -1.372953 -8.061325 -21.858216 -7.398236 -0.857480 1.491942 8.937696 29.664642 0.201144 0.567664 -5.927118 0.753800 -5.545300 -15.470800 21.482644 11.014626 -1.374300 -3.357052 -11.208668 34.839089 0.419907 -6.005875 -12.431131 -0.889800 6.012700 -16.821300 -0.498923 -0.050681 2.119548 -1.513469 0.068791 -6.700640 16.432697 -10.576943 -6.562312 8.625700 -5.082300 0.460100 132.543616 -75.322981 175.317738 34.687125 -46.126702 -13.188696 -0.038331 1.781046 -52.288711 -7.125000 0.000000 0.000000 -119.827400 79.105363 -170.155267 -32.101980 49.085341 -13.359495 0.343281 1.219926 -10.482855 7.125000 0.000000 0.000000 
0.211864 17.243056 -0.686370 1.404040 -1.433930 -7.986935 -21.742292 -7.405942 -0.916198 1.482797 8.927054 29.621364 0.200939 0.577685 -5.944264 0.760700 -5.570100 -15.541900 21.590399 11.099937 -1.406968 -3.342623 -11.197495 34.783350 0.427634 -6.043218 -12.420964 -0.901900 6.052100 -16.935800 -0.470451 -0.005215 2.131518 -1.549245 0.082575 -6.701618 16.486463 -10.578422 -7.033887 8.647300 -5.071700 0.322300 132.326529 -75.381592 175.906716 35.858945 -47.036840 -14.037209 -0.008588 1.730272 -52.052363 -7.125000 0.000000 0.000000 -119.457518 78.990754 -169.757061 -33.314789 50.009172 -14.196320 0.334805 1.231981 -10.299482 7.125000 0.000000 0.000000 
0.209093 17.246050 -0.688920 1.233341 -1.497390 -7.973202 -21.521923 -7.378483 -0.966481 1.487271 8.927657 29.629591 0.197993 0.586661 -5.909268 0.740300 -5.496500 -15.330300 21.827277 11.212758 -1.412264 -3.319052 -11.183862 34.707090 0.466034 -6.287928 -12.548070 -1.081600 6.610200 -18.565700 -0.412448 0.024996 2.155137 -1.588544 0.090204 -6.798541 16.570113 -10.521145 -7.524554 8.680100 -5.030400 0.175400 132.042599 -75.417524 176.498673 37.044986 -47.913592 -14.904547 0.024511 1.680305 -51.643224 -7.125000 0.000000 0.000000 -119.848809 79.183763 -170.058798 -34.813946 51.008590 -15.195875 0.299038 1.235101 -10.206739 7.125000 0.000000 0.000000 
0.205878 17.247159 -0.690693 1.224956 -1.498160 -7.966505 -21.498293 -7.375521 -1.006875 1.495286 8.941805 29.669226 0.196116 0.587712 -5.875827 0.743500 -5.508200 -15.363800 21.863699 11.258390 -1.391648 -3.296875 -11.159299 34.616606 0.492545 -6.443966 -12.606326 -1.158800 6.834200 -19.225000 -0.386843 0.008761 2.145851 -1.546959 0.085516 -6.954319 16.648229 -10.489195 -7.915838 8.714200 -5.000900 0.069100 131.780349 -75.552560 177.021662 38.343151 -48.822455 -15.862466 0.044631 1.630683 -51.187295 -7.125000 0.000000 0.000000 -120.272307 79.429497 -170.307349 -36.439446 52.026836 -16.292053 0.263706 1.243767 -10.257039 7.125000 0.000000 0.000000 
